PathFileType	4	(X/Y/Z)	SUBJ24_2_walk_RCNL2025.trc
DataRate	CameraRate	NumFrames	NumMarkers	Units	OrigDataRate	OrigDataStartFrame	OrigNumFrames
100	100	9	25	mm	100	1	399
Frame#	Time	R_Shoulder			L_Shoulder			C7			J_Notch			R_Elbow			L_Elbow			R_Wrist			L_Wrist			R_Asis			L_Asis			Sacral			Thoracic			Sternum			R_Thigh_Lateral			R_Knee_Lateral			R_Shank_Lateral			R_Ankle_Lateral			R_Heel			R_Toe			L_Thigh_Lateral			L_Knee_Lateral			L_Shank_Lateral			L_Ankle_Lateral			L_Heel			L_Toe		
		X1	Y1	Z1	X2	Y2	Z2	X3	Y3	Z3	X4	Y4	Z4	X5	Y5	Z5	X6	Y6	Z6	X7	Y7	Z7	X8	Y8	Z8	X9	Y9	Z9	X10	Y10	Z10	X11	Y11	Z11	X12	Y12	Z12	X13	Y13	Z13	X14	Y14	Z14	X15	Y15	Z15	X16	Y16	Z16	X17	Y17	Z17	X18	Y18	Z18	X19	Y19	Z19	X20	Y20	Z20	X21	Y21	Z21	X22	Y22	Z22	X23	Y23	Z23	X24	Y24	Z24	X25	Y25	Z25
1	0.00000000	-3459.020752	1264.068848	319.029663	-3470.960205	1282.235718	-25.067995	-3549.838379	1337.060669	149.625214	-3413.311279	1248.369995	142.280670	-3533.431396	982.535156	397.881714	-3442.050537	1002.630310	-132.404816	-3518.747437	745.664154	384.117004	-3251.190796	861.732910	-113.959568	-3419.735107	839.566406	304.877563	-3456.174072	822.024780	-21.906454	-3614.168945	880.537292	161.879410	-3614.992432	1070.625732	142.099976	NaN	NaN	NaN	-3417.118896	525.689819	336.414795	-3315.115723	422.265808	252.986786	-3294.150391	281.570435	303.599854	-3281.715088	46.752129	235.169144	-3327.017090	19.405106	175.633911	-3154.416504	27.648335	227.581573	-3560.064697	525.184570	-37.798321	-3576.883057	398.501556	16.518572	-3682.414062	279.897308	-30.851208	-3835.078369	109.864273	37.349457	-3886.539307	116.619637	93.298676	NaN	NaN	NaN
2	0.01000000	-3451.102295	1264.948608	319.943604	-3462.739014	1283.381714	-24.165869	-3541.914307	1338.038086	150.569977	-3405.295166	1249.532959	143.350937	-3523.864014	983.030762	398.552429	-3436.473145	1003.186218	-131.238800	-3508.241455	746.283600	385.058472	-3247.329712	860.068665	-113.391529	-3412.459229	841.628174	305.971527	-3447.211914	822.378174	-20.293770	-3606.035645	881.327820	161.837585	-3606.870850	1071.545654	142.595551	NaN	NaN	NaN	-3409.388916	527.308960	337.593384	-3308.269531	422.956940	253.266174	-3288.606689	281.191071	303.559052	-3281.193115	47.020477	235.190414	-3326.790771	19.575195	175.642410	-3154.017090	27.208321	227.299744	-3548.036377	524.342163	-37.639465	-3562.963867	397.410645	16.021929	-3670.770264	281.792175	-31.523323	-3826.949951	115.453430	36.447205	-3877.484619	124.541084	92.673729	NaN	NaN	NaN
3	0.02000000	-3441.189209	1266.203369	321.037628	-3452.454102	1284.922119	-23.049345	-3532.005371	1339.312866	151.695068	-3395.272705	1251.037964	144.636703	-3511.772705	983.793152	399.423798	-3429.515137	1003.987488	-129.769836	-3494.777466	747.224518	386.254272	-3242.730225	857.911377	-112.667576	-3403.396973	844.164185	307.340668	-3436.091797	823.019409	-18.286850	-3595.926270	882.398438	161.844666	-3596.805420	1072.791992	143.195282	NaN	NaN	NaN	-3399.785889	529.381042	339.190796	-3300.494629	423.586426	253.805710	-3282.966309	280.797180	303.775513	-3280.602783	47.238632	235.176071	-3326.547119	19.761713	175.646011	-3153.589355	26.719471	227.047363	-3532.747314	523.434875	-37.458855	-3545.133057	396.192078	15.413665	-3655.577148	284.315826	-32.317608	-3815.981201	122.603134	35.496696	-3865.340576	134.309418	92.136864	NaN	NaN	NaN
4	0.03000000	-3429.699463	1267.838379	322.239563	-3440.562500	1286.826050	-21.782066	-3520.541016	1340.853882	152.925079	-3383.684814	1252.838501	146.050140	-3497.623047	984.849976	400.476349	-3421.485596	1005.035156	-128.058975	-3478.780640	748.520844	387.656693	-3237.698608	855.310455	-111.811237	-3392.958740	847.021790	308.917053	-3423.343262	823.998840	-15.988864	-3584.318359	883.755981	161.950089	-3585.239502	1074.339355	143.865173	NaN	NaN	NaN	-3389.039551	531.796387	341.138916	-3292.479492	424.036835	254.652084	-3277.895020	280.393494	304.315704	-3280.004395	47.370819	235.119171	-3326.314697	19.944618	175.641479	-3153.181885	26.230322	226.856628	-3514.770752	522.596741	-37.257332	-3524.017578	395.020782	14.738585	-3637.211426	287.434570	-33.158905	-3802.273193	131.059494	34.646164	-3850.262695	145.358658	91.863907	NaN	NaN	NaN
5	0.04000000	-3417.118164	1269.818115	323.469910	-3427.612061	1289.023926	-20.446470	-3508.025391	1342.617310	154.181915	-3371.052002	1254.867676	147.491577	-3481.986816	986.199707	401.682404	-3412.743408	1006.299500	-126.182526	-3460.810303	750.176361	389.201981	-3232.555542	852.334534	-110.855381	-3381.615234	850.014709	310.607208	-3409.579834	825.330750	-13.539494	-3571.750732	885.393372	162.213135	-3572.673340	1076.140625	144.584641	NaN	NaN	NaN	-3378.152100	534.355652	343.258881	-3284.841553	424.235565	255.798889	-3273.768066	279.946228	305.157654	-3279.454102	47.411003	235.026978	-3326.115234	20.107368	175.627441	-3152.831787	25.783892	226.735291	-3494.845947	521.985291	-37.022198	-3500.457764	394.120056	14.052364	-3616.247803	291.088562	-33.948513	-3786.081787	140.453049	34.047356	-3832.580322	156.970886	92.040146	NaN	NaN	NaN
6	0.05000000	-3403.878662	1272.077026	324.656036	-3414.111084	1291.425537	-19.128513	-3494.914551	1344.563110	155.402115	-3357.850098	1257.057251	148.870667	-3465.397705	987.816101	403.012390	-3403.611572	1007.729797	-124.214096	-3441.411011	752.168915	390.824860	-3227.571899	849.054932	-109.836967	-3369.776855	852.967834	312.308502	-3395.360352	827.002380	-11.096459	-3558.690918	887.288330	162.687378	-3559.561768	1078.150391	145.356552	NaN	NaN	NaN	-3368.049072	536.782532	345.303223	-3277.968506	424.177216	257.181793	-3270.600830	279.430542	306.201813	-3278.986572	47.376850	234.914780	-3325.959717	20.241632	175.605576	-3152.558350	25.407499	226.674835	-3473.693604	521.765442	-36.734261	-3475.271484	393.723602	13.405326	-3593.312744	295.225952	-34.576763	-3767.699463	150.341232	33.812748	-3812.662598	168.406311	92.807831	NaN	NaN	NaN
7	0.06000000	-3390.314941	1274.533936	325.740112	-3400.465576	1293.939575	-17.904997	-3481.562012	1346.663330	156.543869	-3344.453369	1259.348389	150.120010	-3448.279297	989.658447	404.436859	-3394.337646	1009.270447	-122.215820	-3421.036987	754.461121	392.464264	-3222.943970	845.541534	-108.792919	-3357.741455	855.743286	313.929230	-3381.120361	828.987366	-8.812428	-3545.484375	889.404480	163.405563	-3546.262207	1080.332397	146.201294	NaN	NaN	NaN	-3359.251709	538.789856	347.052643	-3271.982178	423.918060	258.692261	-3268.163330	278.875824	307.319916	-3278.612793	47.297413	234.797241	-3325.848145	20.348082	175.581009	-3152.362305	25.111029	226.661179	-3451.908691	522.087463	-36.381775	-3449.128418	394.038208	12.832610	-3569.002930	299.816467	-34.942822	-3747.377441	160.227203	33.982151	-3790.832031	179.001648	94.201027	NaN	NaN	NaN
8	0.07000000	-3376.655273	1277.110107	326.685516	-3386.958008	1296.487183	-16.832689	-3468.208008	1348.899658	157.586929	-3331.119629	1261.692749	151.201508	-3430.925537	991.683411	405.926514	-3385.083252	1010.874512	-120.235504	-3400.026001	757.011597	394.064835	-3218.789673	841.864441	-107.755901	-3345.689697	858.248718	315.408081	-3367.149414	831.254028	-6.808207	-3532.350586	891.694824	164.371429	-3533.014404	1082.653931	147.146957	NaN	NaN	NaN	-3351.767090	540.200439	348.401917	-3266.788086	423.548889	260.198547	-3266.134277	278.350037	308.395538	-3278.324707	47.203033	234.684509	-3325.773438	20.435081	175.561005	-3152.232910	24.890491	226.679169	-3429.913086	523.053711	-35.968590	-3422.525146	395.209747	12.352382	-3543.836914	304.832245	-34.984867	-3725.310059	169.590073	34.511505	-3767.351074	188.247589	96.100822	NaN	NaN	NaN
9	0.08000000	-3363.041016	1279.743774	327.480865	-3373.756348	1299.008423	-15.940548	-3454.994385	1351.251099	158.528198	-3318.001709	1264.048706	152.106354	-3413.513428	993.852356	407.453461	-3375.934326	1012.511230	-118.307281	-3378.605835	759.785217	395.580643	-3215.157349	838.098907	-106.750641	-3333.707275	860.436829	316.724091	-3353.600342	833.769714	-5.157675	-3519.401611	894.105469	165.559387	-3519.946777	1085.078613	148.219360	NaN	NaN	NaN	-3345.222656	541.049683	349.387573	-3262.171875	423.159698	261.569733	-3264.213379	277.908203	309.339661	-3278.103027	47.118416	234.581635	-3325.726074	20.515881	175.552551	-3152.151367	24.733145	226.714645	-3407.951660	524.690125	-35.511349	-3395.809814	397.295898	11.969888	-3518.211182	310.210632	-34.702682	-3701.651611	177.936798	35.291035	-3742.447998	195.827682	98.255531	NaN	NaN	NaN
